<svg width="13" height="13" viewBox="0 0 13 13" fill="none" xmlns="http://www.w3.org/2000/svg">
<path d="M0.494141 1.70959V7.33459C0.494141 7.66272 0.728516 7.89709 1.05664 7.89709H2.93164C3.23633 7.89709 3.49414 7.66272 3.49414 7.33459V1.70959C3.49414 1.40491 3.23633 1.14709 2.93164 1.14709H1.05664C0.728516 1.14709 0.494141 1.40491 0.494141 1.70959ZM1.43164 6.39709C1.43164 6.09241 1.66602 5.83459 1.99414 5.83459C2.29883 5.83459 2.55664 6.09241 2.55664 6.39709C2.55664 6.72522 2.29883 6.95959 1.99414 6.95959C1.66602 6.95959 1.43164 6.72522 1.43164 6.39709ZM7.80664 12.3971C8.36914 12.3971 9.49414 12.2096 9.49414 10.4987C9.49414 9.51428 8.88477 8.95178 8.69727 8.27209H11.0879C11.8613 8.27209 12.4707 7.63928 12.4941 6.91272C12.4941 6.49084 12.3066 6.04553 12.0254 5.76428C12.2598 5.22522 12.2129 4.45178 11.8145 3.91272C12.002 3.30334 11.8145 2.55334 11.416 2.15491C11.5332 1.73303 11.4863 1.38147 11.2754 1.10022C10.8066 0.420532 9.61133 0.397095 8.60352 0.397095H8.5332C7.4082 0.420532 6.49414 0.81897 5.74414 1.14709C5.36914 1.31116 4.87695 1.52209 4.50195 1.52209C4.36133 1.54553 4.24414 1.66272 4.24414 1.80334V6.81897C4.24414 6.91272 4.26758 6.98303 4.31445 7.02991C5.25195 7.94397 5.65039 8.90491 6.40039 9.67834C6.75195 10.0299 6.86914 10.5455 7.00977 11.0612C7.10352 11.483 7.31445 12.3971 7.80664 12.3971Z" fill="#797979"/>
</svg>
