<svg width="13" height="13" viewBox="0 0 13 13" fill="none" xmlns="http://www.w3.org/2000/svg">
<path d="M3.03387 5.64795H1.15887C0.83075 5.64795 0.596375 5.90576 0.596375 6.21045V11.8354C0.596375 12.1636 0.83075 12.3979 1.15887 12.3979H3.03387C3.33856 12.3979 3.59637 12.1636 3.59637 11.8354V6.21045C3.59637 5.90576 3.33856 5.64795 3.03387 5.64795ZM2.09637 11.4604C1.76825 11.4604 1.53387 11.2261 1.53387 10.8979C1.53387 10.5933 1.76825 10.3354 2.09637 10.3354C2.40106 10.3354 2.65887 10.5933 2.65887 10.8979C2.65887 11.2261 2.40106 11.4604 2.09637 11.4604ZM9.59637 2.31982C9.59637 0.585449 8.47137 0.397949 7.90887 0.397949C7.41669 0.397949 7.20575 1.33545 7.112 1.75732C6.97137 2.27295 6.85419 2.78857 6.50262 3.14014C5.75262 3.91357 5.35419 4.87451 4.41669 5.78857C4.36981 5.85889 4.34637 5.9292 4.34637 5.99951V11.0151C4.34637 11.1558 4.46356 11.2729 4.60419 11.2964C4.97919 11.2964 5.47137 11.5073 5.84637 11.6714C6.59637 11.9995 7.51044 12.3979 8.63544 12.3979H8.70575C9.71356 12.3979 10.9089 12.3979 11.3776 11.7183C11.5886 11.437 11.6354 11.0854 11.5182 10.6636C11.9167 10.2651 12.1042 9.51514 11.9167 8.90576C12.3151 8.3667 12.362 7.59326 12.1276 7.0542C12.4089 6.77295 12.5964 6.32764 12.5729 5.90576C12.5729 5.1792 11.9636 4.52295 11.1901 4.52295H8.7995C8.987 3.8667 9.59637 3.3042 9.59637 2.31982Z" fill="#797979"/>
</svg>
