<svg width="13" height="13" viewBox="0 0 13 13" fill="none" xmlns="http://www.w3.org/2000/svg">
<path d="M3.03394 5.64795H1.15894C0.830811 5.64795 0.596436 5.90576 0.596436 6.21045V11.8354C0.596436 12.1636 0.830811 12.3979 1.15894 12.3979H3.03394C3.33862 12.3979 3.59644 12.1636 3.59644 11.8354V6.21045C3.59644 5.90576 3.33862 5.64795 3.03394 5.64795ZM2.09644 11.4604C1.76831 11.4604 1.53394 11.2261 1.53394 10.8979C1.53394 10.5933 1.76831 10.3354 2.09644 10.3354C2.40112 10.3354 2.65894 10.5933 2.65894 10.8979C2.65894 11.2261 2.40112 11.4604 2.09644 11.4604ZM9.59644 2.31982C9.59644 0.585449 8.47144 0.397949 7.90894 0.397949C7.41675 0.397949 7.20581 1.33545 7.11206 1.75732C6.97144 2.27295 6.85425 2.78857 6.50269 3.14014C5.75269 3.91357 5.35425 4.87451 4.41675 5.78857C4.36987 5.85889 4.34644 5.9292 4.34644 5.99951V11.0151C4.34644 11.1558 4.46362 11.2729 4.60425 11.2964C4.97925 11.2964 5.47144 11.5073 5.84644 11.6714C6.59644 11.9995 7.5105 12.3979 8.6355 12.3979H8.70581C9.71362 12.3979 10.9089 12.3979 11.3777 11.7183C11.5886 11.437 11.6355 11.0854 11.5183 10.6636C11.9167 10.2651 12.1042 9.51514 11.9167 8.90576C12.3152 8.3667 12.3621 7.59326 12.1277 7.0542C12.4089 6.77295 12.5964 6.32764 12.573 5.90576C12.573 5.1792 11.9636 4.52295 11.1902 4.52295H8.79956C8.98706 3.8667 9.59644 3.3042 9.59644 2.31982Z" fill="white"/>
</svg>
